<?xml version='1.0' encoding='utf-8'?>
<svg xmlns="http://www.w3.org/2000/svg" width="23.166in" height="31.25in" version="1.1" viewBox="0 0 588.42 793.75"><g transform="translate(-2749.9 -466.49)"><g transform="matrix(.35278 0 0 .35278 3159.7 611.87)"><g transform="translate(227.66 353.13)"><path d="m-568.49-765.18c-13.975 0.8963-23.846 13.495-33.616 22.576-6.0428-4.4004-3.315-24.827-14.153-21.248-5.2538 18.751-27.027 20.133-41.673 28.343-46.008 18.751-80.457 58.584-100.23 103.38-30.672 71.459-41.344 151.62-29.161 228.53-6.6338 25.845-22.268 49.061-27.949 75.563-6.174 31.066-35.236 48.111-51.295 73.562-58.355 43.709-141.11 39.603-196.25 89.552-18.818 15.927-32.746 44.496-60.988 43.314-99.175 1.4121-192.86 83.807-198.02 184.56-4.6305 32.61 12.314 65.551-0.067 97.306-17.963 53.265-56.646 98.551-64.888 155.33-9.1297 44.3 10.309 87.219 12.214 131.19 4.1377 49.752-13.923 98.159-10.376 147.85 2.7585 50.474 17.636 99.668 36.059 146.46 10.18 27.979 42.787 41.246 70.733 35.434 28.833-5.6484 58.621-14.415 88.012-6.9607-7.5202 7.5202-29.59 1.9703-35.896 15.73-11.362 42.757-17.962 89.026-1.2458 131.39-68.208 182.16-109.62 374.5-127.68 568.09 135.79-65.843 270.24-134.51 405.96-200.49-86.761-27.585-174.25-55.567-264.2-70.016 102.36-28.209 199.4-75.889 284.1-139.89 10.476-8.1114-0.528 5.9085-2.958 8.043-66.5 66.237-153.32 110.04-245.01 128.44 102.56 2.5615 205.11 7.8841 307.74 6.7347 13.432-36.813 23.383-74.941 36.979-111.62 7.323 63.84 13.858 128.14 26.14 191.16 21.641-16.551 44.04-33.069 64.894-50.014 4.0388-55.958 10.767-112.05 25.61-166.3 25.09 35.467 5.058 82.427 19.146 122 42.461-32.183 84.368-65.386 127.65-96.551 35.631 78.191 67.42 158.26 100.62 237.57 9.2602-80.194 10.376-161.34 6.7635-241.93 40.425 65.876 66.859 143.57 89.124 214.24 8.8005-109.49-3.6442-221.34-36.878-326.1-4.5645-19.901-18.686-35.928-30.902-50.279 18.883-21.214 17.736-54.152 2.4-76.713-100.36 9.2936-201.38 13.727-302.16 9.2604 99.701-6.0753 199.73-9.553 299.04-21.08-7.8158-22.594-16.748-53.727-44.695-56.913-0.8865-19.933 12.35-36.19 15.798-54.974-0.0675-26.666-13.991-52.478-8.3753-79.407 4.992-22.462 24.331-37.14 36.055-55.662-7.6185-35.5-12.148-72.08-6.5325-108.27-17.307 6.1738-34.154 13.657-50.77 21.44 2.8238 12.775 1.6732 26.766 6.0075 38.917 31.034-21.379 30.213 26.076 32.019 46.469-35.401 8.0457-70.374 25.907-107.38 21.079-36.452-12.742-18.292-63.937-45.286-85.381-16.222 65.876-99.932 93.525-157.1 66.433 39.9-27.322 80.525-53.757 122.69-77.434-15.074-11.034-34.811-12.28-52.151-18.092 5.9108 7.8486 12.181 15.434 17.895 23.48-25.877-3.5794-38.125-31.23-44.233-53.593 12.446 11.559 25.844 23.019 42.987 26.664 83.117 23.283 175.37 9.3261 250.73-31.658 36.419-19.211 58.288-57.47 63.181-97.6 7.389 41.049 24.697 81.806 57.077 109.78 41.706 32.675 80.16 72.772 95.069 125.05 13.661 42.264 50.377 70.704 85.285 95.301 32.478 22.429 73.136 40.292 113.17 30.243 30.442-8.5383 48.633-36.122 64.692-61.146 64.923 14.318 106.27-53.529 106.1-110.28-14.974 22.167-21.475 51.687-45.382 66.794-34.843 20.952-80.063 5.8116-108.73-18.785 28.472 12.578 61.899 26.305 92.506 12.546 24.236-13.825 39.934-38.422 54.055-61.738-72.805 34.383-144.95-31.757-173.33-95.137-3.3495 11.231-4.1378 22.957-5.484 34.549-12.84-21.28-7.6545-48.374-16.587-71.296-16.847 16.978-20.327 42.265-16.485 65.023-15.829-24.925-47.091-15.533-65.909 0.39443 9.7538-26.994 36.616-41.837 62.888-48.865 1.7408-12.118-27.123-2.5648-38.157-5.0606-32.478 5.8126-55.73-21.574-67.322-48.239-10.443-27.618-46.994-16.815-63.71-37.931-26.633-29.523-34.678-83.314-6.4028-114.05 39.275-29.621 91.031-6.3039 122.75 23.35-6.6668-15.27-20.132-25.484-31.1-37.372-4.5322-40.097 2.2672-81.638-10.179-120.82-25.55-83.708-105.48-157.1-196.81-151.52-23.908-27.914-51.231-57.964-88.34-67.356 29.489 18.324 60.292 39.966 73.067 73.889-26.338 12.315-53.986 23.776-75.101 44.728-20.328-3.2836-40.622-7.7505-61.377-7.9804 7.7505-8.2099 16.582-15.366 23.971-23.937-32.511 21.707-70.21 31.194-109.26 28.469 19.014-15.697 34.646-39.109 27.65-64.855 17.339 7.0934 34.844 19.997 54.614 13.561 25.68-9.2279 36.351-36.811 51.063-57.499 37.372-48.176 84.003-93.33 98.485-154.81-18.128 34.416-34.281 70.9-60.487 100.39-6.8632-20.032 14.449-27.093 22.527-40.952-23.578-17.274-51.492-33.235-73.889-49.129-30.672 32.905 44.629 52.674 18.752 82.394-31.822-16.65-67.682-0.72248-101.51-4.9259 21.542-21.214 11.097-51.687-1.6118-74.38-12.775-32.807 22.727-56.058 51.824-54.219-51.394-26.107-105.19-47.849-155.86-75.664 15.96-28.866 38.852-58.421 68.901-74.841 28.078-14.449 59.6-0.91785 82.85 16.356-9.4245-28.603-35.891-50.244-37.007-81.836-4.4662-34.711 34.348-68.041 67.319-50.866 44.76 22.035 90.212 61.573 94.612 114.41 8.3415-47.946 50.244 27.321 60.588-1.5779 6.4365 42.166 19.932 115.43-38.128 125.41-31.361-2.7585-39.735 68.767-3.579 55.729-13.366-38.521 39.44-33.565 49.62-62.628-3.579-49.259 11.168-97.925 3.156-147.12 9.0638-1.1494 18.292-1.2158 27.29-3.0548-6.6338-7.3561-13.796-14.414-18.491-23.215 20.032 9.1294 41.378 17.304 63.84 16.024-18.489-13.234-38.355-28.863-43.675-52.179 8.3085-6.338 18.785-8.378 27.848-13.238-24.728-30.311-54.647-65.153-54.287-105.12-37.076-32.675-85.315-50.147-126.27-77.732-36.747-20.558-80.23-13.464-119.31-24.596-2.1758-0.3941-4.2525-0.5031-6.2482-0.3751zm-175.81 250.85c30.868 4.1368 47.876 46.435 43.967 75.457-11.756-23.349-23.345-56.287-51.587-62.329-34.678 19.047-27.125 86.924 7.1918 101.27-21.477-22.429-31.398-76.874 2.328-89.484-0.9195 19.737-14.645 38.585-12.642 58.125 13.76 12.578 20.79 34.614 37.604 41.74-1.5758-14.942 3.9412-28.833 16.683-37.141 0.78825 21.411 4.203 55.434-23.12 61.608-31.361 0.0985-51.888-29.196-56.354-57.668-7.323-30.377-13.561-75.895 21.873-90.87 4.9545-1.1165 9.6465-1.303 14.056-0.71198zm234.83 108.25c-2.934 0.0165-5.9378 0.25447-9.0248 0.74085-13.858 4.7617-32.711 6.2388-39.903 20.82 9.852 20.525 39.275 22.132 46.96 45.219 14.68 38.816 67.912 40.327 98.88 23.316 7.0605-13.464 48.376-22.625 18.525-32.543-43.594-8.251-71.432-57.803-115.44-57.553zm-155.69 86.454c30.376 39.112 73.625 74.903 80.061 126.79-20.722-25.286-47.222-45.775-77.435-58.385-2.9558-21.74-0.7875-45.811-2.6265-68.405zm-191.97 91.168c6.7605 1.2794 10.259 14.781 10.862 20.844-25.286 41.509-59.475 79.77-103.55 101.67 30.737 11.133 66.569 12.05 94.285-7.2927-10.574 23.382-19.408 49.456-38.652 67.255 116.58-8.7681 213.62 83.415 263.73 180.65 55.565-25.516 178.42-60.984 218.94 21.738-17.766-14.778-36.881-29.488-61.117-30.999 12.578 68.93 24.272 138.12 32.942 207.64-17.143-17.044-39.539-26.634-63.085-30.739-25.024-56.057-44.796-115.37-52.776-176.45-96.548 23.283-198.45 90.605-213.98 195.92-52.707 8.998-95.105 43.35-142.52 64.696-27.651 32.445-20.033 79.994-13.859 118.88-18.325-38.357-26.471-96.056 8.4375-127.71 27.618-14.515 55.172-29.356 82.658-44.232-73.692-32.84-125.41-130.24-76.121-203.38-30.344 0.45975-54.02-25.678-84.987-21.508-38.521-1.3465-71.362 23.545-108.47 27.256-36.583-8.3741-46.466-52.347-45.416-84.924-26.961 8.4725-65.878 0.78945-66.009-33.856-0.6892-80.456 88.568-127.88 160.26-127.78-7.5863-18.423 9.5587-33.694 22.465-44.17 50.54-38.948 115.26-49.028 172.86-73.264 1.1002-0.37335 2.1322-0.4377 3.0982-0.25485zm344.17 70.267c23.473-1.0544 43.251 15.73 62.676 26.506-26.699 3.8094-53.069-7.6864-72.971-24.894 3.5138-0.94837 6.9412-1.461 10.294-1.6114zm-474.48 56.258c39.112 15.763 67.45 47.023 95.954 76.02-11.396-41.575-57.565-64.46-95.954-76.02zm462.14 0.24075c9.9428 1.1527 19.511 7.5724 28.748 11.021-6.3712 25.943-56.648 16.259-38.816-10.112 3.399-1.0919 6.7545-1.2936 10.069-0.909zm191.89 68.713c73.013-3.0262 137.11 68.053 142.5 138.49 2.6272 30.081-15.438 75.231-52.251 68.039-37.339-15.303-65.643-53.625-109.55-51.818 27.618 23.185 65.481 54.81 56.057 94.939-16.814 20.426-49.525 11.459-72.283 22.46-15.763-23.349 14.683-40.952 13.008-64.629-0.16425-36.912-32.285-62.851-61.907-79.238-60.72-36.977-153.98-40.556-198.51 23.119 11.79-21.707-14.811-37.867-24.466-55.075 32.774-9.7205 67.321-11.556 101.34-10.636-3.8423-4.4333-7.9793-8.6072-11.526-13.205 20.328-25.089 57.505-25.546 87.06-22.984 14.974 0.066 33.889 14.974 45.416-0.19733 19.376-20.886 42.066-40.69 70.406-47.652 4.932-0.88268 9.843-1.4147 14.71-1.6163zm317.97 214.19c-3.468 0.0195-7.0095 0.44332-10.622 1.3421-35.105 18.784-56.679 56.059-72.508 91.394-10.903 25.91 11.692 46.562 26.568 64.624 10.509-61.443 67.356-100.19 120.39-124-18.735-13.907-39.557-33.499-63.83-33.361zm-1074.5 0.92835c45.467-2.1267 86.12 37.931 87.902 84.251 4.335 49.456-5.0588 102.73-33.794 143.94-22.954 26.206-57.104 2.9211-80.749-9.7221-53.758-23.612-120.55-57.863-119.34-126.17-29.621 30.245-46.406 70.473-59.64 110.04-17.668-9.3592-22.625-30.965-23.644-49.322-2.397-48.241 23.217-92.871 53.396-128.5 9.5235 16.124 26.996 28.078 46.469 24.269 39.834-5.7469 70.606-36.389 109.72-45.19 6.5925-2.1303 13.184-3.2944 19.679-3.5982zm1198.3 31.215c-5.649 0.0263-11.441 0.56745-17.371 1.6788 34.547 56.582 77.076 107.97 113.76 163.21-29.982-2.9881-60.064 5.255-85.088 21.806-34.054-51.591-63.022-106.73-83.087-165.28-59.276 23.546-113.59 85.878-100.52 153.36 8.0453 22.594 12.018 62.463 42.395 62.594 12.775 63.511 74.546 120.02 141.93 112.21 63.676-6.6335 132.84-41.543 155.56-104.99 13.595-55.137-23.742-104.72-48.273-150.89-23.452-46.07-64.706-93.945-119.31-93.694zm-1303 180.12c23.572 0 47.188 6.5423 68.42 16.394-30.015 2.3644-62.198 5.5508-87.32 23.711 58.257-5.8454 118.91-7.3882 175.56 9.4913 21.445 3.8422 21.345 36.486 1.8713 42.496-41.148 16.584-82.395 33.033-124.49 47.023 13.3-14.154 31.065-25.877 36.155-45.81-60.096 1.9703-120.94 4.5351-180.22-8.0096 8.67-40.59 45.746-74.447 86.565-82.985 7.758-1.5764 15.608-2.308 23.465-2.3093zm249.56 5.7873c11.592 0.65685-20.261 9.6538-26.699 15.696-52.641 42.035-35.568 120.49-15.865 175.6-30.935-42.396-41.606-102.63-19.439-151.33 10.87-24.433 36.979-36.057 62.002-39.965zm77.338 26.078c21.116 62.001 55.724 119.27 103.83 164.03-67.289-20.623-93.785-100.98-103.83-164.03zm-70.772 191.02c15.106 13.694 30.344 27.226 48.143 37.406-23.578 5.5827-40.262-18.589-48.143-37.406zm244.21 63.619c7.1385 0.0985 14.222 0.99435 21.003 3.3095-20.788 19.802-44.923 37.175-68.501 54.022-19.343 13.825-42.034-0.65873-56.057-15.042 24.4-18.39 52.018-34.413 82.23-40.817 6.9952-0.87022 14.186-1.5704 21.325-1.4718zm133.15 14.836c16.946 0.19703 35.598 2.3303 49.062 13.594-34.415-1.642-58.946 24.73-86.17 41.019-18.488 11.264-38.585-10.903-38.618-28.8 21.313-16.354 49.028-24.204 75.726-25.813zm-144.14 77.506c62.672-1.0991 126.73 9.0145 186.24 22.951-96.778 5.2214-194.9 15.663-290.7-4.7962 24.86-9.3592 51.69-12.247 77.699-16.976 8.8792-0.63607 17.803-1.0216 26.756-1.1786z" stroke-width="3.284"/></g></g></g></svg>