<?xml version="1.0" encoding="UTF-8"?>
<svg xmlns="http://www.w3.org/2000/svg" xmlns:xlink="http://www.w3.org/1999/xlink" width="3306.12" height="2409.57" viewBox="0 0 3306.12 2409.57">
<defs>
<clipPath id="clip-0">
<path clip-rule="nonzero" d="M 116 375 L 3189 375 L 3189 2292 L 116 2292 Z M 116 375 "/>
</clipPath>
<clipPath id="clip-1">
<path clip-rule="evenodd" d="M 1797.480469 1548.640625 L 2050.300781 1548.640625 C 2082.308594 1548.640625 2108.398438 1574.730469 2108.398438 1606.730469 C 2108.398438 1638.738281 2082.308594 1664.828125 2050.300781 1664.828125 L 1797.480469 1664.828125 C 1740.730469 1664.828125 1689.359375 1640.890625 1652.511719 1602.429688 C 1615.671875 1640.898438 1564.300781 1664.828125 1507.550781 1664.828125 L 1254.730469 1664.828125 C 1222.71875 1664.828125 1196.628906 1638.738281 1196.628906 1606.730469 C 1196.628906 1574.730469 1222.71875 1548.640625 1254.730469 1548.640625 L 1507.550781 1548.640625 C 1555.421875 1548.640625 1594.421875 1507.488281 1594.421875 1456.921875 C 1594.421875 1424.921875 1620.511719 1398.828125 1652.511719 1398.828125 C 1684.519531 1398.828125 1710.609375 1424.921875 1710.609375 1456.921875 C 1710.609375 1507.488281 1749.601562 1548.640625 1797.480469 1548.640625 Z M 1857.269531 974.511719 C 1796.308594 1007.539062 1726.550781 1026.328125 1652.511719 1026.328125 C 1578.761719 1026.328125 1509.261719 1007.679688 1448.449219 974.871094 C 1431.691406 1021.808594 1404.058594 1064.460938 1369.300781 1094.378906 C 1324.648438 1132.839844 1271.941406 1148.96875 1216.808594 1141.449219 C 1212.769531 1140.859375 1208.421875 1140.421875 1203.808594 1140.210938 C 1219.261719 1153.269531 1227.511719 1174.011719 1223.519531 1195.230469 C 1218.421875 1222.929688 1193.949219 1242.570312 1166.511719 1242.570312 C 1163.011719 1242.570312 1159.519531 1242.300781 1155.75 1241.488281 C 1086.890625 1228.710938 1050.46875 1189.429688 1034.730469 1167.050781 C 1009.621094 1152.011719 936.074219 1114.890625 847.492188 1133.300781 C 826.863281 1156.359375 785.363281 1192.460938 725.683594 1196.308594 C 724.074219 1196.039062 723.003906 1196.039062 721.660156 1196.039062 C 691.269531 1196.039062 665.714844 1172.378906 663.832031 1141.71875 C 661.683594 1109.710938 686.152344 1082.011719 718.160156 1080.121094 C 726.691406 1079.601562 734.621094 1076.328125 741.464844 1072.101562 C 714.8125 1033.921875 656.472656 975.078125 551.339844 977.699219 C 548.289062 978.199219 545.179688 978.460938 541.992188 978.460938 L 541.449219 978.460938 C 516.703125 978.460938 486.855469 983.300781 476.097656 988.949219 C 465.613281 1007.511719 445.976562 1018.269531 425.535156 1018.269531 C 418.003906 1018.269531 410.46875 1016.929688 403.210938 1013.691406 C 373.621094 1001.320312 359.640625 967.171875 372.015625 937.578125 C 395.558594 881.671875 467.054688 866.660156 512.457031 863.148438 C 547.640625 810.941406 566.203125 739.078125 582.871094 674.808594 C 606.003906 584.980469 626.175781 507.25 689.921875 476.320312 C 718.425781 462.339844 753.121094 474.171875 767.378906 502.679688 C 770.070312 508.328125 772.761719 510.75 781.363281 517.75 C 790.503906 525.28125 802.878906 535.488281 814.175781 551.898438 C 819.558594 541.140625 828.699219 531.730469 840.265625 526.078125 L 901.585938 495.691406 C 901.316406 487.890625 899.4375 475.25 898.359375 466.910156 L 895.945312 449.429688 C 895.675781 448.089844 895.675781 446.738281 895.402344 445.660156 C 894.328125 445.390625 892.984375 445.121094 891.636719 444.589844 C 865.546875 437.859375 837.039062 423.878906 806.917969 409.078125 C 784.328125 398.058594 743.441406 378.148438 725.691406 375.460938 C 723.808594 377.078125 721.390625 379.488281 718.699219 382.988281 C 716.816406 385.410156 714.667969 387.558594 712.242188 389.71875 C 657.648438 439.199219 590.402344 487.078125 518.859375 537.910156 C 355.066406 654.640625 169.214844 786.960938 158.460938 936.230469 C 157.117188 950.488281 150.933594 963.941406 140.976562 973.621094 C 129.144531 985.71875 113.273438 1010.738281 116.769531 1023.921875 C 119.464844 1034.410156 139.902344 1052.160156 188.847656 1066.679688 C 201.488281 1070.449219 212.511719 1078.519531 220.046875 1089.269531 C 222.195312 1092.230469 433.058594 1390.230469 763.070312 1438.640625 C 780.820312 1441.328125 796.417969 1452.089844 805.304688 1467.691406 C 805.570312 1468.230469 852.640625 1547.300781 942.738281 1565.589844 C 964.253906 1569.890625 981.734375 1586.300781 987.382812 1607.539062 C 1011.859375 1698.980469 1050.859375 1768.648438 1088.78125 1836.160156 C 1146.609375 1939.160156 1206.320312 2045.140625 1203.359375 2214.308594 C 1321.820312 2259.921875 1457.078125 2285.539062 1594.421875 2291.171875 L 1594.421875 2247.371094 L 1484.679688 2225.871094 C 1416.910156 2212.421875 1371.449219 2162.941406 1371.449219 2102.421875 C 1371.449219 2070.421875 1397.539062 2044.328125 1429.550781 2044.328125 C 1461.550781 2044.328125 1487.640625 2070.421875 1487.640625 2102.421875 C 1488.449219 2104.308594 1494.628906 2109.421875 1507.269531 2111.839844 L 1594.421875 2128.910156 L 1594.421875 1983.789062 L 1484.679688 1962.300781 C 1416.910156 1948.851562 1371.449219 1899.359375 1371.449219 1838.851562 C 1371.449219 1806.839844 1397.539062 1780.75 1429.550781 1780.75 C 1461.550781 1780.75 1487.640625 1806.839844 1487.640625 1838.851562 C 1488.449219 1840.730469 1494.628906 1845.839844 1507.269531 1848.261719 L 1594.421875 1865.328125 L 1594.421875 1781.828125 C 1594.421875 1749.820312 1620.511719 1723.730469 1652.511719 1723.730469 C 1684.519531 1723.730469 1710.609375 1749.820312 1710.609375 1781.828125 L 1710.609375 1865.050781 L 1797.75 1847.980469 C 1810.121094 1845.558594 1816.300781 1840.449219 1817.378906 1838.839844 C 1817.378906 1806.828125 1843.46875 1780.480469 1875.480469 1780.480469 C 1907.480469 1780.480469 1933.570312 1806.300781 1933.570312 1838.308594 C 1933.570312 1898.820312 1888.121094 1948.308594 1820.339844 1961.75 L 1710.609375 1983.25 L 1710.609375 2128.628906 L 1797.75 2111.558594 C 1810.121094 2109.140625 1816.300781 2104.03125 1817.378906 2102.421875 C 1817.378906 2070.410156 1843.46875 2044.050781 1875.480469 2044.050781 C 1907.480469 2044.050781 1933.570312 2069.878906 1933.570312 2101.878906 C 1933.570312 2162.398438 1888.121094 2211.890625 1820.339844 2225.328125 L 1710.609375 2246.820312 L 1710.609375 2291.179688 C 1847.988281 2285.550781 1983.328125 2259.929688 2101.941406 2214.308594 C 2098.980469 2045.128906 2158.691406 1939.160156 2216.511719 1836.160156 C 2254.429688 1768.921875 2293.699219 1699.261719 2317.910156 1607.539062 C 2323.558594 1586.300781 2340.769531 1569.890625 2362.558594 1565.589844 C 2452.660156 1547.300781 2499.730469 1468.21875 2499.988281 1467.421875 C 2508.871094 1452.089844 2524.46875 1441.328125 2541.949219 1438.640625 C 2871.960938 1390.230469 3082.820312 1092.230469 3084.980469 1089.269531 C 3092.511719 1078.519531 3103.53125 1070.449219 3116.171875 1066.679688 C 3165.128906 1052.160156 3185.570312 1034.410156 3188.25 1023.921875 C 3191.75 1009.941406 3173.988281 983.308594 3164.050781 973.621094 C 3153.820312 963.671875 3147.640625 950.488281 3146.828125 936.230469 C 3136.070312 787.230469 2950.21875 654.910156 2786.429688 537.910156 C 2715.148438 487.078125 2647.921875 439.199219 2593.050781 389.71875 C 2590.890625 387.558594 2588.46875 385.421875 2586.589844 382.988281 C 2583.898438 379.488281 2581.480469 377.078125 2579.601562 375.460938 C 2561.570312 378.148438 2520.960938 397.78125 2498.371094 409.078125 C 2468.25 423.871094 2439.730469 437.589844 2413.648438 444.589844 C 2412.308594 444.851562 2411.238281 445.128906 2410.148438 445.660156 C 2409.890625 447 2409.890625 448.078125 2409.609375 449.429688 L 2407.199219 466.910156 C 2405.851562 475.25 2403.96875 487.890625 2403.96875 495.691406 L 2465.289062 526.078125 C 2476.859375 531.730469 2485.730469 541.140625 2491.378906 551.898438 C 2502.679688 535.488281 2515.050781 525.28125 2524.191406 517.75 C 2532.800781 510.761719 2535.488281 508.328125 2538.179688 502.679688 C 2552.429688 474.171875 2586.851562 462.328125 2615.640625 476.320312 C 2679.378906 507.25 2699.28125 584.980469 2722.679688 674.808594 C 2739.339844 739.089844 2757.910156 810.941406 2793.101562 863.160156 C 2838.800781 866.660156 2909.75 881.699219 2933.289062 937.578125 C 2945.660156 967.171875 2931.671875 1001.328125 2902.089844 1013.699219 C 2894.550781 1016.921875 2887.03125 1018.269531 2879.488281 1018.269531 C 2859.050781 1018.269531 2839.421875 1007.511719 2828.929688 988.949219 C 2817.910156 983.308594 2786.699219 978.460938 2763.578125 978.460938 L 2763.039062 978.460938 C 2759.78125 978.460938 2756.589844 978.199219 2753.480469 977.679688 C 2649.039062 975.339844 2590.78125 1034.140625 2564.011719 1072.308594 C 2570.738281 1076.429688 2578.5 1079.601562 2586.871094 1080.121094 C 2618.878906 1082.269531 2643.078125 1109.710938 2641.199219 1141.71875 C 2639.308594 1172.378906 2613.761719 1196.039062 2583.371094 1196.039062 L 2579.601562 1196.039062 C 2519.828125 1192.191406 2478.300781 1155.988281 2457.699219 1132.929688 C 2368.890625 1114.449219 2295.25 1152.03125 2270.5 1166.96875 C 2254.878906 1189.328125 2218.421875 1228.699219 2149.269531 1241.488281 C 2145.511719 1242.03125 2142.011719 1242.570312 2138.519531 1242.570312 C 2111.089844 1242.570312 2086.609375 1222.929688 2081.5 1194.960938 C 2077.480469 1173.609375 2085.859375 1152.75 2101.5 1139.699219 C 2097.070312 1139.921875 2092.890625 1140.351562 2089.019531 1140.921875 C 2033.890625 1148.71875 1981.171875 1132.308594 1936.53125 1093.851562 C 1901.671875 1063.808594 1874.011719 1021.300781 1857.269531 974.511719 "/>
</clipPath>
<linearGradient id="linear-pattern-0" gradientUnits="userSpaceOnUse" x1="-0.303393" y1="0" x2="1.303552" y2="0" gradientTransform="matrix(0, 1192.15, -1192.15, 0, 1652.49, 737.15)">
<stop offset="0" stop-color="rgb(97.253418%, 58.430481%, 11.372375%)" stop-opacity="1"/>
<stop offset="0.125" stop-color="rgb(97.253418%, 58.430481%, 11.372375%)" stop-opacity="1"/>
<stop offset="0.1875" stop-color="rgb(97.253418%, 58.430481%, 11.372375%)" stop-opacity="1"/>
<stop offset="0.203125" stop-color="rgb(97.23053%, 58.267212%, 11.38916%)" stop-opacity="1"/>
<stop offset="0.21875" stop-color="rgb(97.184753%, 57.928467%, 11.427307%)" stop-opacity="1"/>
<stop offset="0.234375" stop-color="rgb(97.134399%, 57.574463%, 11.46698%)" stop-opacity="1"/>
<stop offset="0.25" stop-color="rgb(97.085571%, 57.218933%, 11.506653%)" stop-opacity="1"/>
<stop offset="0.265625" stop-color="rgb(97.036743%, 56.864929%, 11.5448%)" stop-opacity="1"/>
<stop offset="0.28125" stop-color="rgb(96.987915%, 56.510925%, 11.584473%)" stop-opacity="1"/>
<stop offset="0.296875" stop-color="rgb(96.937561%, 56.155396%, 11.624146%)" stop-opacity="1"/>
<stop offset="0.3125" stop-color="rgb(96.888733%, 55.801392%, 11.663818%)" stop-opacity="1"/>
<stop offset="0.328125" stop-color="rgb(96.839905%, 55.447388%, 11.703491%)" stop-opacity="1"/>
<stop offset="0.34375" stop-color="rgb(96.791077%, 55.091858%, 11.743164%)" stop-opacity="1"/>
<stop offset="0.359375" stop-color="rgb(96.740723%, 54.737854%, 11.781311%)" stop-opacity="1"/>
<stop offset="0.375" stop-color="rgb(96.691895%, 54.38385%, 11.820984%)" stop-opacity="1"/>
<stop offset="0.390625" stop-color="rgb(96.643066%, 54.02832%, 11.860657%)" stop-opacity="1"/>
<stop offset="0.40625" stop-color="rgb(96.592712%, 53.674316%, 11.90033%)" stop-opacity="1"/>
<stop offset="0.421875" stop-color="rgb(96.543884%, 53.320312%, 11.940002%)" stop-opacity="1"/>
<stop offset="0.4375" stop-color="rgb(96.495056%, 52.966309%, 11.978149%)" stop-opacity="1"/>
<stop offset="0.453125" stop-color="rgb(96.446228%, 52.610779%, 12.017822%)" stop-opacity="1"/>
<stop offset="0.46875" stop-color="rgb(96.395874%, 52.256775%, 12.057495%)" stop-opacity="1"/>
<stop offset="0.484375" stop-color="rgb(96.347046%, 51.902771%, 12.097168%)" stop-opacity="1"/>
<stop offset="0.5" stop-color="rgb(96.298218%, 51.547241%, 12.136841%)" stop-opacity="1"/>
<stop offset="0.515625" stop-color="rgb(96.24939%, 51.193237%, 12.176514%)" stop-opacity="1"/>
<stop offset="0.53125" stop-color="rgb(96.199036%, 50.839233%, 12.214661%)" stop-opacity="1"/>
<stop offset="0.546875" stop-color="rgb(96.150208%, 50.483704%, 12.254333%)" stop-opacity="1"/>
<stop offset="0.5625" stop-color="rgb(96.101379%, 50.1297%, 12.294006%)" stop-opacity="1"/>
<stop offset="0.578125" stop-color="rgb(96.052551%, 49.775696%, 12.333679%)" stop-opacity="1"/>
<stop offset="0.59375" stop-color="rgb(96.002197%, 49.420166%, 12.373352%)" stop-opacity="1"/>
<stop offset="0.609375" stop-color="rgb(95.953369%, 49.066162%, 12.411499%)" stop-opacity="1"/>
<stop offset="0.625" stop-color="rgb(95.904541%, 48.712158%, 12.451172%)" stop-opacity="1"/>
<stop offset="0.640625" stop-color="rgb(95.854187%, 48.358154%, 12.490845%)" stop-opacity="1"/>
<stop offset="0.65625" stop-color="rgb(95.805359%, 48.002625%, 12.530518%)" stop-opacity="1"/>
<stop offset="0.671875" stop-color="rgb(95.756531%, 47.648621%, 12.57019%)" stop-opacity="1"/>
<stop offset="0.6875" stop-color="rgb(95.707703%, 47.294617%, 12.608337%)" stop-opacity="1"/>
<stop offset="0.703125" stop-color="rgb(95.657349%, 46.939087%, 12.64801%)" stop-opacity="1"/>
<stop offset="0.71875" stop-color="rgb(95.608521%, 46.585083%, 12.687683%)" stop-opacity="1"/>
<stop offset="0.734375" stop-color="rgb(95.559692%, 46.231079%, 12.727356%)" stop-opacity="1"/>
<stop offset="0.75" stop-color="rgb(95.510864%, 45.875549%, 12.767029%)" stop-opacity="1"/>
<stop offset="0.765625" stop-color="rgb(95.46051%, 45.521545%, 12.806702%)" stop-opacity="1"/>
<stop offset="0.78125" stop-color="rgb(95.411682%, 45.167542%, 12.844849%)" stop-opacity="1"/>
<stop offset="0.796875" stop-color="rgb(95.362854%, 44.812012%, 12.884521%)" stop-opacity="1"/>
<stop offset="0.8125" stop-color="rgb(95.315552%, 44.473267%, 12.922668%)" stop-opacity="1"/>
<stop offset="0.875" stop-color="rgb(95.292664%, 44.313049%, 12.940979%)" stop-opacity="1"/>
<stop offset="1" stop-color="rgb(95.292664%, 44.313049%, 12.940979%)" stop-opacity="1"/>
</linearGradient>
<clipPath id="clip-2">
<path clip-rule="nonzero" d="M 1337 434 L 1968 434 L 1968 911 L 1337 911 Z M 1337 434 "/>
</clipPath>
<clipPath id="clip-3">
<path clip-rule="evenodd" d="M 1652.511719 910.140625 C 1730.039062 910.140625 1801.128906 881.960938 1856.109375 835.308594 C 1858.230469 833.148438 1860.519531 831.148438 1862.960938 829.339844 C 1927.230469 771.578125 1967.71875 687.878906 1967.71875 594.929688 L 1967.71875 441.75 C 1888.96875 476.308594 1788.148438 514.03125 1697.699219 514.25 C 1654.128906 514.25 1612.988281 505.371094 1577.75 483.320312 C 1512.378906 441.980469 1405.539062 434.410156 1337.300781 434.21875 L 1337.300781 594.929688 C 1337.300781 687.71875 1377.671875 771.308594 1441.738281 829.050781 C 1444.921875 831.300781 1447.851562 833.851562 1450.511719 836.671875 C 1505.261719 882.511719 1575.738281 910.140625 1652.511719 910.140625 "/>
</clipPath>
<linearGradient id="linear-pattern-1" gradientUnits="userSpaceOnUse" x1="0.0804139" y1="0" x2="0.919681" y2="0" gradientTransform="matrix(0, 567.066, -567.066, 0, 1652.51, 388.62)">
<stop offset="0" stop-color="rgb(97.096252%, 57.295227%, 11.497498%)" stop-opacity="1"/>
<stop offset="0.03125" stop-color="rgb(97.070312%, 57.10907%, 11.517334%)" stop-opacity="1"/>
<stop offset="0.0625" stop-color="rgb(97.018433%, 56.739807%, 11.558533%)" stop-opacity="1"/>
<stop offset="0.09375" stop-color="rgb(96.968079%, 56.369019%, 11.599731%)" stop-opacity="1"/>
<stop offset="0.125" stop-color="rgb(96.916199%, 55.99823%, 11.64093%)" stop-opacity="1"/>
<stop offset="0.15625" stop-color="rgb(96.864319%, 55.628967%, 11.682129%)" stop-opacity="1"/>
<stop offset="0.1875" stop-color="rgb(96.813965%, 55.258179%, 11.723328%)" stop-opacity="1"/>
<stop offset="0.21875" stop-color="rgb(96.762085%, 54.88739%, 11.764526%)" stop-opacity="1"/>
<stop offset="0.25" stop-color="rgb(96.710205%, 54.518127%, 11.805725%)" stop-opacity="1"/>
<stop offset="0.28125" stop-color="rgb(96.659851%, 54.147339%, 11.846924%)" stop-opacity="1"/>
<stop offset="0.3125" stop-color="rgb(96.607971%, 53.778076%, 11.888123%)" stop-opacity="1"/>
<stop offset="0.34375" stop-color="rgb(96.556091%, 53.407288%, 11.929321%)" stop-opacity="1"/>
<stop offset="0.375" stop-color="rgb(96.504211%, 53.036499%, 11.97052%)" stop-opacity="1"/>
<stop offset="0.40625" stop-color="rgb(96.453857%, 52.667236%, 12.011719%)" stop-opacity="1"/>
<stop offset="0.4375" stop-color="rgb(96.401978%, 52.296448%, 12.052917%)" stop-opacity="1"/>
<stop offset="0.46875" stop-color="rgb(96.350098%, 51.925659%, 12.094116%)" stop-opacity="1"/>
<stop offset="0.5" stop-color="rgb(96.299744%, 51.556396%, 12.135315%)" stop-opacity="1"/>
<stop offset="0.53125" stop-color="rgb(96.247864%, 51.185608%, 12.176514%)" stop-opacity="1"/>
<stop offset="0.5625" stop-color="rgb(96.195984%, 50.814819%, 12.217712%)" stop-opacity="1"/>
<stop offset="0.59375" stop-color="rgb(96.144104%, 50.445557%, 12.258911%)" stop-opacity="1"/>
<stop offset="0.625" stop-color="rgb(96.09375%, 50.074768%, 12.30011%)" stop-opacity="1"/>
<stop offset="0.65625" stop-color="rgb(96.04187%, 49.703979%, 12.341309%)" stop-opacity="1"/>
<stop offset="0.6875" stop-color="rgb(95.98999%, 49.334717%, 12.380981%)" stop-opacity="1"/>
<stop offset="0.71875" stop-color="rgb(95.939636%, 48.963928%, 12.42218%)" stop-opacity="1"/>
<stop offset="0.75" stop-color="rgb(95.887756%, 48.59314%, 12.463379%)" stop-opacity="1"/>
<stop offset="0.78125" stop-color="rgb(95.835876%, 48.223877%, 12.504578%)" stop-opacity="1"/>
<stop offset="0.8125" stop-color="rgb(95.785522%, 47.853088%, 12.545776%)" stop-opacity="1"/>
<stop offset="0.84375" stop-color="rgb(95.733643%, 47.4823%, 12.586975%)" stop-opacity="1"/>
<stop offset="0.875" stop-color="rgb(95.681763%, 47.113037%, 12.628174%)" stop-opacity="1"/>
<stop offset="0.90625" stop-color="rgb(95.629883%, 46.742249%, 12.669373%)" stop-opacity="1"/>
<stop offset="0.9375" stop-color="rgb(95.579529%, 46.37146%, 12.710571%)" stop-opacity="1"/>
<stop offset="0.96875" stop-color="rgb(95.527649%, 46.002197%, 12.75177%)" stop-opacity="1"/>
<stop offset="1" stop-color="rgb(95.475769%, 45.631409%, 12.792969%)" stop-opacity="1"/>
</linearGradient>
<clipPath id="clip-4">
<path clip-rule="nonzero" d="M 1358 116 L 1949 116 L 1949 399 L 1358 399 Z M 1358 116 "/>
</clipPath>
<clipPath id="clip-5">
<path clip-rule="evenodd" d="M 1639.878906 384.878906 C 1705.589844 426.390625 1862.699219 361.828125 1948.519531 322.960938 C 1904.21875 202.328125 1788.210938 116.191406 1652.511719 116.191406 C 1518.789062 116.191406 1404.199219 200.011719 1358.5 317.839844 C 1446.648438 319.589844 1558.78125 333.570312 1639.878906 384.878906 "/>
</clipPath>
<linearGradient id="linear-pattern-2" gradientUnits="userSpaceOnUse" x1="-0.0851847" y1="0" x2="0.988101" y2="0" gradientTransform="matrix(0, -289.019, 289.019, 0, 1653.51, 401.77)">
<stop offset="0" stop-color="rgb(63.136292%, 65.097046%, 65.489197%)" stop-opacity="1"/>
<stop offset="0.125" stop-color="rgb(62.991333%, 64.91394%, 65.316772%)" stop-opacity="1"/>
<stop offset="0.15625" stop-color="rgb(62.748718%, 64.607239%, 65.02533%)" stop-opacity="1"/>
<stop offset="0.1875" stop-color="rgb(62.55188%, 64.356995%, 64.787292%)" stop-opacity="1"/>
<stop offset="0.21875" stop-color="rgb(62.355042%, 64.10675%, 64.550781%)" stop-opacity="1"/>
<stop offset="0.25" stop-color="rgb(62.156677%, 63.858032%, 64.31427%)" stop-opacity="1"/>
<stop offset="0.28125" stop-color="rgb(61.959839%, 63.607788%, 64.077759%)" stop-opacity="1"/>
<stop offset="0.3125" stop-color="rgb(61.763%, 63.357544%, 63.841248%)" stop-opacity="1"/>
<stop offset="0.34375" stop-color="rgb(61.566162%, 63.1073%, 63.604736%)" stop-opacity="1"/>
<stop offset="0.375" stop-color="rgb(61.367798%, 62.858582%, 63.366699%)" stop-opacity="1"/>
<stop offset="0.40625" stop-color="rgb(61.170959%, 62.608337%, 63.130188%)" stop-opacity="1"/>
<stop offset="0.4375" stop-color="rgb(60.974121%, 62.358093%, 62.893677%)" stop-opacity="1"/>
<stop offset="0.46875" stop-color="rgb(60.775757%, 62.107849%, 62.657166%)" stop-opacity="1"/>
<stop offset="0.5" stop-color="rgb(60.578918%, 61.857605%, 62.420654%)" stop-opacity="1"/>
<stop offset="0.53125" stop-color="rgb(60.38208%, 61.608887%, 62.184143%)" stop-opacity="1"/>
<stop offset="0.5625" stop-color="rgb(60.183716%, 61.358643%, 61.947632%)" stop-opacity="1"/>
<stop offset="0.59375" stop-color="rgb(59.986877%, 61.108398%, 61.709595%)" stop-opacity="1"/>
<stop offset="0.625" stop-color="rgb(59.790039%, 60.858154%, 61.473083%)" stop-opacity="1"/>
<stop offset="0.65625" stop-color="rgb(59.593201%, 60.609436%, 61.236572%)" stop-opacity="1"/>
<stop offset="0.6875" stop-color="rgb(59.394836%, 60.359192%, 61.000061%)" stop-opacity="1"/>
<stop offset="0.71875" stop-color="rgb(59.197998%, 60.108948%, 60.76355%)" stop-opacity="1"/>
<stop offset="0.75" stop-color="rgb(59.00116%, 59.858704%, 60.527039%)" stop-opacity="1"/>
<stop offset="0.78125" stop-color="rgb(58.802795%, 59.608459%, 60.289001%)" stop-opacity="1"/>
<stop offset="0.8125" stop-color="rgb(58.605957%, 59.359741%, 60.05249%)" stop-opacity="1"/>
<stop offset="0.84375" stop-color="rgb(58.409119%, 59.109497%, 59.815979%)" stop-opacity="1"/>
<stop offset="0.875" stop-color="rgb(58.210754%, 58.859253%, 59.579468%)" stop-opacity="1"/>
<stop offset="0.90625" stop-color="rgb(58.013916%, 58.609009%, 59.342957%)" stop-opacity="1"/>
<stop offset="0.9375" stop-color="rgb(57.817078%, 58.360291%, 59.106445%)" stop-opacity="1"/>
<stop offset="0.96875" stop-color="rgb(57.620239%, 58.110046%, 58.868408%)" stop-opacity="1"/>
<stop offset="1" stop-color="rgb(57.421875%, 57.859802%, 58.631897%)" stop-opacity="1"/>
</linearGradient>
</defs>
<path fill-rule="evenodd" fill="rgb(0%, 0%, 0%)" fill-opacity="1" d="M 1358.5 317.839844 C 1446.648438 319.589844 1558.78125 333.570312 1639.878906 384.878906 C 1705.589844 426.390625 1862.699219 361.828125 1948.519531 322.960938 C 1904.21875 202.328125 1788.210938 116.191406 1652.511719 116.191406 C 1518.789062 116.191406 1404.199219 200.011719 1358.5 317.839844 Z M 2050.300781 1664.828125 C 2082.308594 1664.828125 2108.398438 1638.738281 2108.398438 1606.730469 C 2108.398438 1574.730469 2082.308594 1548.640625 2050.300781 1548.640625 L 1797.480469 1548.640625 C 1749.601562 1548.640625 1710.609375 1507.488281 1710.609375 1456.921875 C 1710.609375 1424.921875 1684.519531 1398.828125 1652.511719 1398.828125 C 1620.511719 1398.828125 1594.421875 1424.921875 1594.421875 1456.921875 C 1594.421875 1507.488281 1555.421875 1548.640625 1507.550781 1548.640625 L 1254.730469 1548.640625 C 1222.71875 1548.640625 1196.628906 1574.730469 1196.628906 1606.730469 C 1196.628906 1638.738281 1222.71875 1664.828125 1254.730469 1664.828125 L 1507.550781 1664.828125 C 1564.300781 1664.828125 1615.671875 1640.898438 1652.511719 1602.429688 C 1689.359375 1640.890625 1740.730469 1664.828125 1797.480469 1664.828125 Z M 814.984375 615.640625 Z M 2490.050781 615.640625 Z M 1448.449219 974.871094 C 1509.261719 1007.679688 1578.761719 1026.328125 1652.511719 1026.328125 C 1726.550781 1026.328125 1796.308594 1007.539062 1857.269531 974.511719 C 1874.011719 1021.300781 1901.671875 1063.808594 1936.53125 1093.851562 C 1981.171875 1132.308594 2033.890625 1148.71875 2089.019531 1140.921875 C 2092.890625 1140.351562 2097.070312 1139.921875 2101.5 1139.699219 C 2085.859375 1152.75 2077.480469 1173.609375 2081.5 1194.960938 C 2086.609375 1222.929688 2111.089844 1242.570312 2138.519531 1242.570312 C 2142.011719 1242.570312 2145.511719 1242.03125 2149.269531 1241.488281 C 2218.421875 1228.699219 2254.878906 1189.328125 2270.5 1166.96875 C 2295.25 1152.03125 2368.890625 1114.449219 2457.699219 1132.929688 C 2478.300781 1155.988281 2519.828125 1192.191406 2579.601562 1196.039062 C 2580.949219 1196.039062 2582.03125 1196.039062 2583.371094 1196.039062 C 2613.761719 1196.039062 2639.308594 1172.378906 2641.199219 1141.71875 C 2643.078125 1109.710938 2618.878906 1082.269531 2586.871094 1080.121094 C 2578.5 1079.601562 2570.738281 1076.429688 2564.011719 1072.308594 C 2590.78125 1034.140625 2649.039062 975.339844 2753.480469 977.679688 C 2756.589844 978.199219 2759.78125 978.460938 2763.039062 978.460938 C 2763.308594 978.460938 2763.308594 978.460938 2763.578125 978.460938 C 2786.699219 978.460938 2817.910156 983.308594 2828.929688 988.949219 C 2839.421875 1007.511719 2859.050781 1018.269531 2879.488281 1018.269531 C 2887.03125 1018.269531 2894.550781 1016.921875 2902.089844 1013.699219 C 2931.671875 1001.328125 2945.660156 967.171875 2933.289062 937.578125 C 2909.75 881.699219 2838.800781 866.660156 2793.101562 863.160156 C 2757.910156 810.941406 2739.339844 739.089844 2722.679688 674.808594 C 2699.28125 584.980469 2679.378906 507.25 2615.640625 476.320312 C 2586.851562 462.328125 2552.429688 474.171875 2538.179688 502.679688 C 2535.488281 508.328125 2532.800781 510.761719 2524.191406 517.75 C 2515.050781 525.28125 2502.679688 535.488281 2491.378906 551.898438 C 2485.730469 541.140625 2476.859375 531.730469 2465.289062 526.078125 L 2403.96875 495.691406 C 2403.96875 487.890625 2405.851562 475.25 2407.199219 466.910156 L 2409.609375 449.429688 C 2409.890625 448.078125 2409.890625 447 2410.148438 445.660156 C 2411.238281 445.128906 2412.308594 444.851562 2413.648438 444.589844 C 2439.730469 437.589844 2468.25 423.871094 2498.371094 409.078125 C 2520.960938 397.78125 2561.570312 378.148438 2579.601562 375.460938 C 2581.480469 377.078125 2583.898438 379.488281 2586.589844 382.988281 C 2588.46875 385.421875 2590.890625 387.558594 2593.050781 389.71875 C 2647.921875 439.199219 2715.148438 487.078125 2786.429688 537.910156 C 2950.21875 654.910156 3136.070312 787.230469 3146.828125 936.230469 C 3147.640625 950.488281 3153.820312 963.671875 3164.050781 973.621094 C 3173.988281 983.308594 3191.75 1009.941406 3188.25 1023.921875 C 3185.570312 1034.410156 3165.128906 1052.160156 3116.171875 1066.679688 C 3103.53125 1070.449219 3092.511719 1078.519531 3084.980469 1089.269531 C 3082.820312 1092.230469 2871.960938 1390.230469 2541.949219 1438.640625 C 2524.46875 1441.328125 2508.871094 1452.089844 2499.988281 1467.421875 C 2499.730469 1468.21875 2452.660156 1547.300781 2362.558594 1565.589844 C 2340.769531 1569.890625 2323.558594 1586.300781 2317.910156 1607.539062 C 2293.699219 1699.261719 2254.429688 1768.921875 2216.511719 1836.160156 C 2158.691406 1939.160156 2098.980469 2045.128906 2101.941406 2214.308594 C 1983.328125 2259.929688 1847.988281 2285.550781 1710.609375 2291.179688 L 1710.609375 2246.820312 L 1820.339844 2225.328125 C 1888.121094 2211.890625 1933.570312 2162.398438 1933.570312 2101.878906 C 1933.570312 2069.878906 1907.480469 2044.050781 1875.480469 2044.050781 C 1843.46875 2044.050781 1817.378906 2070.410156 1817.378906 2102.421875 C 1816.300781 2104.03125 1810.121094 2109.140625 1797.75 2111.558594 L 1710.609375 2128.628906 L 1710.609375 1983.25 L 1820.339844 1961.75 C 1888.121094 1948.308594 1933.570312 1898.820312 1933.570312 1838.308594 C 1933.570312 1806.300781 1907.480469 1780.480469 1875.480469 1780.480469 C 1843.46875 1780.480469 1817.378906 1806.828125 1817.378906 1838.839844 C 1816.300781 1840.449219 1810.121094 1845.558594 1797.75 1847.980469 L 1710.609375 1865.050781 L 1710.609375 1781.828125 C 1710.609375 1749.820312 1684.519531 1723.730469 1652.511719 1723.730469 C 1620.511719 1723.730469 1594.421875 1749.820312 1594.421875 1781.828125 L 1594.421875 1865.328125 L 1507.269531 1848.261719 C 1494.628906 1845.839844 1488.449219 1840.730469 1487.640625 1838.851562 C 1487.640625 1806.839844 1461.550781 1780.75 1429.550781 1780.75 C 1397.539062 1780.75 1371.449219 1806.839844 1371.449219 1838.851562 C 1371.449219 1899.359375 1416.910156 1948.851562 1484.679688 1962.300781 L 1594.421875 1983.789062 L 1594.421875 2128.910156 L 1507.269531 2111.839844 C 1494.628906 2109.421875 1488.449219 2104.308594 1487.640625 2102.421875 C 1487.640625 2070.421875 1461.550781 2044.328125 1429.550781 2044.328125 C 1397.539062 2044.328125 1371.449219 2070.421875 1371.449219 2102.421875 C 1371.449219 2162.941406 1416.910156 2212.421875 1484.679688 2225.871094 L 1594.421875 2247.371094 L 1594.421875 2291.171875 C 1457.078125 2285.539062 1321.820312 2259.921875 1203.359375 2214.308594 C 1206.320312 2045.140625 1146.609375 1939.160156 1088.78125 1836.160156 C 1050.859375 1768.648438 1011.859375 1698.980469 987.382812 1607.539062 C 981.734375 1586.300781 964.253906 1569.890625 942.738281 1565.589844 C 852.640625 1547.300781 805.570312 1468.230469 805.304688 1467.691406 C 796.417969 1452.089844 780.820312 1441.328125 763.070312 1438.640625 C 433.058594 1390.230469 222.195312 1092.230469 220.046875 1089.269531 C 212.511719 1078.519531 201.488281 1070.449219 188.847656 1066.679688 C 139.902344 1052.160156 119.464844 1034.410156 116.769531 1023.921875 C 113.273438 1010.738281 129.144531 985.71875 140.976562 973.621094 C 150.933594 963.941406 157.117188 950.488281 158.460938 936.230469 C 169.214844 786.960938 355.066406 654.640625 518.859375 537.910156 C 590.402344 487.078125 657.648438 439.199219 712.242188 389.71875 C 714.667969 387.558594 716.816406 385.410156 718.699219 382.988281 C 721.390625 379.488281 723.808594 377.078125 725.691406 375.460938 C 743.441406 378.148438 784.328125 398.058594 806.917969 409.078125 C 837.039062 423.878906 865.546875 437.859375 891.636719 444.589844 C 892.984375 445.121094 894.328125 445.390625 895.402344 445.660156 C 895.675781 446.738281 895.675781 448.089844 895.945312 449.429688 L 898.359375 466.910156 C 899.4375 475.25 901.316406 487.890625 901.585938 495.691406 L 840.265625 526.078125 C 828.699219 531.730469 819.558594 541.140625 814.175781 551.898438 C 802.878906 535.488281 790.503906 525.28125 781.363281 517.75 C 772.761719 510.75 770.070312 508.328125 767.378906 502.679688 C 753.121094 474.171875 718.425781 462.339844 689.921875 476.320312 C 626.175781 507.25 606.003906 584.980469 582.871094 674.808594 C 566.203125 739.078125 547.640625 810.941406 512.457031 863.148438 C 467.054688 866.660156 395.558594 881.671875 372.015625 937.578125 C 359.640625 967.171875 373.621094 1001.320312 403.210938 1013.691406 C 410.46875 1016.929688 418.003906 1018.269531 425.535156 1018.269531 C 445.976562 1018.269531 465.613281 1007.511719 476.097656 988.949219 C 486.855469 983.300781 516.703125 978.460938 541.449219 978.460938 C 541.449219 978.460938 541.722656 978.460938 541.992188 978.460938 C 545.179688 978.460938 548.289062 978.199219 551.339844 977.699219 C 656.472656 975.078125 714.8125 1033.921875 741.464844 1072.101562 C 734.621094 1076.328125 726.691406 1079.601562 718.160156 1080.121094 C 686.152344 1082.011719 661.683594 1109.710938 663.832031 1141.71875 C 665.714844 1172.378906 691.269531 1196.039062 721.660156 1196.039062 C 723.003906 1196.039062 724.074219 1196.039062 725.683594 1196.308594 C 785.363281 1192.460938 826.863281 1156.359375 847.492188 1133.300781 C 936.074219 1114.890625 1009.621094 1152.011719 1034.730469 1167.050781 C 1050.46875 1189.429688 1086.890625 1228.710938 1155.75 1241.488281 C 1159.519531 1242.300781 1163.011719 1242.570312 1166.511719 1242.570312 C 1193.949219 1242.570312 1218.421875 1222.929688 1223.519531 1195.230469 C 1227.511719 1174.011719 1219.261719 1153.269531 1203.808594 1140.210938 C 1208.421875 1140.421875 1212.769531 1140.859375 1216.808594 1141.449219 C 1271.941406 1148.96875 1324.648438 1132.839844 1369.300781 1094.378906 C 1404.058594 1064.460938 1431.691406 1021.808594 1448.449219 974.871094 Z M 1652.511719 2409.570312 C 1465.859375 2409.570312 1279.480469 2375.140625 1120.25 2306.019531 C 1097.660156 2296.070312 1083.671875 2272.941406 1085.550781 2248.46875 C 1097.648438 2089.25 1046.558594 1998.339844 987.382812 1893.441406 C 952.15625 1830.769531 912.617188 1760.308594 884.378906 1670.480469 C 799.660156 1642.511719 745.867188 1583.601562 720.585938 1549.71875 C 398.105469 1491.089844 188.046875 1239.878906 136.410156 1172.121094 C 61.644531 1146.019531 16.996094 1105.679688 3.8125 1051.890625 C -11.519531 989.5 22.914062 934.621094 44.425781 907.730469 C 71.050781 714.621094 272.773438 570.988281 451.355469 443.511719 C 518.328125 395.640625 581.804688 350.449219 631.019531 306.609375 C 643.65625 291.550781 657.640625 279.71875 672.703125 271.378906 C 726.765625 240.988281 793.195312 273.539062 857.480469 305.011719 C 881.144531 316.570312 905.894531 328.671875 920.683594 332.441406 C 988.195312 350.191406 1002.980469 378.160156 1010.519531 434.101562 L 1012.671875 449.699219 C 1018.050781 486.011719 1028.53125 553.519531 969.363281 591.441406 C 967.480469 592.511719 965.597656 593.589844 963.714844 594.671875 L 930.632812 611.070312 C 931.972656 661.628906 904.808594 694.710938 870.652344 706.820312 C 813.636719 727.261719 745.046875 689.601562 721.386719 624.789062 C 720.574219 622.898438 720.042969 621.289062 719.234375 619.941406 C 710.09375 646.03125 701.210938 679.660156 695.027344 704.128906 C 681.578125 755.769531 666.246094 815.480469 640.433594 870.878906 C 749.355469 896.160156 812.292969 968.511719 843.222656 1016.390625 C 944.347656 1001.320312 1029.070312 1033.601562 1075.058594 1057.261719 C 1137.730469 1020.691406 1198.78125 1021.488281 1232.941406 1026.328125 C 1254.449219 1029.289062 1274.359375 1022.839844 1293.449219 1006.429688 C 1321.050781 982.648438 1341.910156 941.449219 1348.21875 900.339844 C 1269.761719 822.160156 1221.109375 714.089844 1221.109375 594.929688 L 1221.109375 431.410156 C 1221.109375 412.238281 1222.390625 393.371094 1224.828125 374.871094 C 1224.988281 370.75 1225.589844 366.738281 1226.589844 362.859375 C 1259.558594 157.53125 1438.078125 0 1652.511719 0 C 1858.640625 0 2031.589844 145.578125 2073.960938 339.238281 C 2074.648438 341.71875 2075.179688 344.210938 2075.539062 346.710938 C 2081.03125 374.101562 2083.910156 402.421875 2083.910156 431.410156 L 2083.910156 594.929688 C 2083.910156 713.660156 2035.621094 821.398438 1957.648438 899.5 C 1964 940.71875 1984.699219 982.050781 2012.378906 1005.898438 C 2031.480469 1022.300781 2051.109375 1029.03125 2072.890625 1025.800781 C 2106.78125 1020.960938 2168.101562 1019.878906 2230.769531 1056.730469 C 2276.761719 1033.070312 2361.480469 1000.789062 2462.609375 1015.851562 C 2493.539062 967.980469 2556.46875 895.628906 2665.398438 870.351562 C 2639.578125 814.941406 2624.25 755.230469 2610.800781 703.601562 C 2604.621094 679.121094 2595.730469 645.5 2586.601562 619.410156 C 2585.789062 620.75 2585.25 622.371094 2584.441406 624.25 C 2560.78125 689.070312 2492.460938 726.730469 2435.179688 706.289062 C 2401.019531 694.191406 2373.859375 661.101562 2375.460938 610.539062 L 2342.378906 594.128906 C 2340.5 593.058594 2338.621094 592.25 2336.730469 590.898438 C 2277.558594 552.980469 2287.78125 485.46875 2293.429688 449.171875 L 2295.578125 433.570312 C 2303.109375 377.621094 2317.898438 349.648438 2385.410156 331.898438 C 2400.480469 327.871094 2424.949219 316.039062 2448.621094 304.46875 C 2512.890625 273.011719 2579.601562 240.730469 2633.390625 271.121094 C 2648.460938 279.46875 2662.441406 291.300781 2675.078125 306.359375 C 2724.300781 350.191406 2787.769531 395.378906 2854.738281 443.25 C 3033.320312 570.460938 3234.769531 714.089844 3261.671875 907.46875 C 3283.449219 934.371094 3317.609375 989.230469 3302.28125 1051.628906 C 3289.101562 1105.148438 3244.460938 1145.5 3169.691406 1171.851562 C 3118.050781 1239.621094 2907.988281 1491.101562 2585.511719 1549.460938 C 2560.230469 1583.089844 2506.441406 1642.261719 2421.71875 1670.230469 C 2393.480469 1760.058594 2353.941406 1830.25 2318.710938 1893.191406 C 2259.539062 1998.359375 2208.710938 2088.988281 2220.539062 2248.21875 C 2222.429688 2272.96875 2208.441406 2296.089844 2185.578125 2305.769531 C 2025.550781 2374.878906 1839.171875 2409.570312 1652.511719 2409.570312 Z M 1697.699219 514.25 C 1654.128906 514.25 1612.988281 505.371094 1577.75 483.320312 C 1512.378906 441.980469 1405.539062 434.410156 1337.300781 434.21875 L 1337.300781 594.929688 C 1337.300781 687.71875 1377.671875 771.308594 1441.738281 829.050781 C 1444.921875 831.300781 1447.851562 833.851562 1450.511719 836.671875 C 1505.261719 882.511719 1575.738281 910.140625 1652.511719 910.140625 C 1730.039062 910.140625 1801.128906 881.960938 1856.109375 835.308594 C 1858.230469 833.148438 1860.519531 831.148438 1862.960938 829.339844 C 1927.230469 771.578125 1967.71875 687.878906 1967.71875 594.929688 L 1967.71875 441.75 C 1888.96875 476.308594 1788.148438 514.03125 1697.699219 514.25 "/>
<g clip-path="url(#clip-0)">
<g clip-path="url(#clip-1)">
<path fill-rule="nonzero" fill="url(#linear-pattern-0)" d="M 3191.75 375.460938 L 113.273438 375.460938 L 113.273438 2291.179688 L 3191.75 2291.179688 Z M 3191.75 375.460938 "/>
</g>
</g>
<g clip-path="url(#clip-2)">
<g clip-path="url(#clip-3)">
<path fill-rule="nonzero" fill="url(#linear-pattern-1)" d="M 1967.71875 434.21875 L 1337.300781 434.21875 L 1337.300781 910.140625 L 1967.71875 910.140625 Z M 1967.71875 434.21875 "/>
</g>
</g>
<g clip-path="url(#clip-4)">
<g clip-path="url(#clip-5)">
<path fill-rule="nonzero" fill="url(#linear-pattern-2)" d="M 1358.5 426.390625 L 1948.519531 426.390625 L 1948.519531 116.191406 L 1358.5 116.191406 Z M 1358.5 426.390625 "/>
</g>
</g>
</svg>
